PathFileType	4	(X/Y/Z)	C:\Users\italobelli\Desktop\GitHub\PTbot_officialCBL\Personal_Results\ABD22_noisy2.trc
DataRate	CameraRate	NumFrames	NumMarkers	Units	OrigDataRate	OrigDataStartFrame	OrigNumFrames
106.125000	106.125000	17	9	m	106.125000	319	850
Frame#	Time		gu		centelbow		EpL		centpxt8		centijc7		ij		ts		aa		ai
			X1	Y1	Z1	X2	Y2	Z2	X3	Y3	Z3	X4	Y4	Z4	X5	Y5	Z5	X6	Y6	Z6	X7	Y7	Z7	X8	Y8	Z8	X9	Y9	Z9

319	2.9965	-0.10682	0.066773	0.10549	-0.099979	0.2634	0.26134	-0.11737	0.27872	0.23893	-0.046816	-0.15316	-0.008669	-0.046816	0.031938	-0.008669	0	0	0	-0.13672	-0.015119	0.040962	-0.14778	0.086201	0.10289	-0.14252	-0.07019	0.14004
320	3.0059	-0.10703	0.066798	0.10528	-0.099649	0.2642	0.25996	-0.11707	0.27938	0.23747	-0.046816	-0.15316	-0.008669	-0.046816	0.031938	-0.008669	0	0	0	-0.13683	-0.01523	0.041131	-0.14797	0.086331	0.10269	-0.14255	-0.069917	0.14047
321	3.0153	-0.10723	0.066822	0.10508	-0.099286	0.26499	0.25857	-0.11674	0.28004	0.23603	-0.046816	-0.15316	-0.008669	-0.046816	0.031938	-0.008669	0	0	0	-0.13694	-0.01534	0.041302	-0.14816	0.086459	0.10249	-0.14258	-0.069644	0.1409
322	3.0247	-0.10743	0.066846	0.10489	-0.098893	0.26578	0.25718	-0.11638	0.28069	0.23458	-0.046816	-0.15316	-0.008669	-0.046816	0.031938	-0.008669	0	0	0	-0.13706	-0.015449	0.041478	-0.14836	0.086586	0.1023	-0.14261	-0.06937	0.14132
323	3.0342	-0.10763	0.066869	0.10469	-0.09847	0.26656	0.25579	-0.116	0.28135	0.23313	-0.046816	-0.15316	-0.008669	-0.046816	0.031938	-0.008669	0	0	0	-0.13718	-0.015556	0.041656	-0.14855	0.086711	0.10212	-0.14263	-0.069095	0.14175
324	3.0436	-0.10783	0.066891	0.1045	-0.098019	0.26735	0.25439	-0.11559	0.282	0.23169	-0.046816	-0.15316	-0.008669	-0.046816	0.031938	-0.008669	0	0	0	-0.1373	-0.015662	0.041838	-0.14874	0.086835	0.10193	-0.14265	-0.06882	0.14217
325	3.053	-0.10803	0.066914	0.10431	-0.097541	0.26813	0.253	-0.11515	0.28266	0.23024	-0.046816	-0.15316	-0.008669	-0.046816	0.031938	-0.008669	0	0	0	-0.13743	-0.015766	0.042022	-0.14893	0.086957	0.10175	-0.14267	-0.068544	0.14259
326	3.0624	-0.10823	0.066936	0.10412	-0.097036	0.26891	0.25161	-0.11469	0.28331	0.2288	-0.046816	-0.15316	-0.008669	-0.046816	0.031938	-0.008669	0	0	0	-0.13755	-0.015869	0.042209	-0.14912	0.087077	0.10157	-0.14269	-0.068268	0.14302
327	3.0718	-0.10842	0.066958	0.10394	-0.096507	0.26968	0.25021	-0.11421	0.28396	0.22737	-0.046816	-0.15316	-0.008669	-0.046816	0.031938	-0.008669	0	0	0	-0.13768	-0.01597	0.042398	-0.14931	0.087196	0.10139	-0.1427	-0.067992	0.14343
328	3.0813	-0.10862	0.066979	0.10375	-0.095953	0.27045	0.24882	-0.1137	0.2846	0.22594	-0.046816	-0.15316	-0.008669	-0.046816	0.031938	-0.008669	0	0	0	-0.13781	-0.01607	0.042589	-0.1495	0.087313	0.10122	-0.14272	-0.067716	0.14385
329	3.0907	-0.10882	0.067	0.10357	-0.095377	0.27121	0.24743	-0.11318	0.28524	0.22451	-0.046816	-0.15316	-0.008669	-0.046816	0.031938	-0.008669	0	0	0	-0.13795	-0.016169	0.042783	-0.14969	0.087429	0.10105	-0.14273	-0.06744	0.14426
330	3.1001	-0.10901	0.067021	0.10339	-0.09478	0.27197	0.24605	-0.11263	0.28588	0.22309	-0.046816	-0.15316	-0.008669	-0.046816	0.031938	-0.008669	0	0	0	-0.13808	-0.016266	0.042978	-0.14987	0.087543	0.10088	-0.14274	-0.067164	0.14467
331	3.1095	-0.1092	0.067041	0.10322	-0.094162	0.27272	0.24466	-0.11207	0.28652	0.22168	-0.046816	-0.15316	-0.008669	-0.046816	0.031938	-0.008669	0	0	0	-0.13822	-0.016362	0.043175	-0.15006	0.087655	0.10072	-0.14275	-0.066888	0.14508
332	3.119	-0.1094	0.067062	0.10304	-0.093526	0.27346	0.24329	-0.11149	0.28714	0.22027	-0.046816	-0.15316	-0.008669	-0.046816	0.031938	-0.008669	0	0	0	-0.13836	-0.016456	0.043373	-0.15024	0.087765	0.10056	-0.14275	-0.066613	0.14548
333	3.1284	-0.10959	0.067081	0.10287	-0.092871	0.27419	0.24191	-0.11089	0.28776	0.21887	-0.046816	-0.15316	-0.008669	-0.046816	0.031938	-0.008669	0	0	0	-0.1385	-0.016549	0.043572	-0.15042	0.087874	0.1004	-0.14276	-0.066339	0.14589
334	3.1378	-0.10978	0.067101	0.1027	-0.0922	0.27492	0.24054	-0.11027	0.28838	0.21748	-0.046816	-0.15316	-0.008669	-0.046816	0.031938	-0.008669	0	0	0	-0.13864	-0.016641	0.043773	-0.1506	0.087981	0.10024	-0.14276	-0.066066	0.14628
335	3.1472	-0.10997	0.067121	0.10253	-0.091512	0.27564	0.23918	-0.10964	0.28899	0.2161	-0.046816	-0.15316	-0.008669	-0.046816	0.031938	-0.008669	0	0	0	-0.13879	-0.016731	0.043974	-0.15078	0.088086	0.10008	-0.14276	-0.065794	0.14668
